<mxfile host="65bd71144e">
    <diagram id="U50eOBprR_XrGbPmDyc1" name="Page-1">
        <mxGraphModel dx="899" dy="717" grid="1" gridSize="10" guides="1" tooltips="1" connect="1" arrows="1" fold="1" page="1" pageScale="1" pageWidth="850" pageHeight="1100" math="0" shadow="0">
            <root>
                <mxCell id="0"/>
                <mxCell id="1" parent="0"/>
                <mxCell id="2" value="entity_object" style="rounded=0;whiteSpace=wrap;html=1;" parent="1" vertex="1">
                    <mxGeometry x="690" y="210" width="120" height="60" as="geometry"/>
                </mxCell>
                <mxCell id="3" value="equippable_object" style="rounded=0;whiteSpace=wrap;html=1;" parent="1" vertex="1">
                    <mxGeometry x="720" y="390" width="120" height="60" as="geometry"/>
                </mxCell>
                <mxCell id="4" value="entity_input&lt;br&gt;(A part of entity_actor)" style="rounded=0;whiteSpace=wrap;html=1;" parent="1" vertex="1">
                    <mxGeometry x="490" y="390" width="120" height="60" as="geometry"/>
                </mxCell>
                <mxCell id="5" value="" style="endArrow=classic;html=1;exitX=0.5;exitY=0;exitDx=0;exitDy=0;entryX=0.5;entryY=1;entryDx=0;entryDy=0;" parent="1" source="4" target="2" edge="1">
                    <mxGeometry width="50" height="50" relative="1" as="geometry">
                        <mxPoint x="740" y="370" as="sourcePoint"/>
                        <mxPoint x="790" y="320" as="targetPoint"/>
                    </mxGeometry>
                </mxCell>
                <mxCell id="6" value="" style="endArrow=classic;html=1;exitX=0.5;exitY=1;exitDx=0;exitDy=0;entryX=0.5;entryY=0;entryDx=0;entryDy=0;startArrow=classic;startFill=1;" parent="1" source="2" target="3" edge="1">
                    <mxGeometry width="50" height="50" relative="1" as="geometry">
                        <mxPoint x="680" y="360" as="sourcePoint"/>
                        <mxPoint x="760" y="280" as="targetPoint"/>
                    </mxGeometry>
                </mxCell>
                <mxCell id="7" value="Giving inputs to entity" style="text;html=1;strokeColor=none;fillColor=none;align=center;verticalAlign=middle;whiteSpace=wrap;rounded=0;" parent="1" vertex="1">
                    <mxGeometry x="560" y="310" width="90" height="30" as="geometry"/>
                </mxCell>
                <mxCell id="8" value="equippable_object register itself to entity_object" style="text;html=1;strokeColor=none;fillColor=none;align=center;verticalAlign=middle;whiteSpace=wrap;rounded=0;" parent="1" vertex="1">
                    <mxGeometry x="850" y="405" width="110" height="30" as="geometry"/>
                </mxCell>
                <mxCell id="9" value="entity_object store equippable_object" style="text;html=1;strokeColor=none;fillColor=none;align=center;verticalAlign=middle;whiteSpace=wrap;rounded=0;" parent="1" vertex="1">
                    <mxGeometry x="820" y="225" width="100" height="30" as="geometry"/>
                </mxCell>
                <mxCell id="11" value="&lt;h1&gt;How player interacts with equippables&lt;/h1&gt;&lt;p&gt;Player can interact with the equippables by its middle man, player_input. Then player input will gave its input to entity_object, where the object has all actions related to equippable object.&lt;/p&gt;&lt;p&gt;When player wants to change equippables, the game will replace current equippable to another equippable&lt;/p&gt;" style="text;html=1;strokeColor=none;fillColor=none;spacing=5;spacingTop=-20;whiteSpace=wrap;overflow=hidden;rounded=0;" parent="1" vertex="1">
                    <mxGeometry x="80" y="100" width="280" height="210" as="geometry"/>
                </mxCell>
                <mxCell id="12" value="&lt;h1&gt;How entities interact with equippables&lt;/h1&gt;&lt;p&gt;Every time the equippable becomes a child of certain node, the node will ask for interface that it can use to register itself for use.&lt;/p&gt;&lt;p&gt;Entities will have functions related to interfacing between entity and equippable.&lt;/p&gt;" style="text;html=1;strokeColor=none;fillColor=none;spacing=5;spacingTop=-20;whiteSpace=wrap;overflow=hidden;rounded=0;" parent="1" vertex="1">
                    <mxGeometry x="80" y="360" width="280" height="210" as="geometry"/>
                </mxCell>
            </root>
        </mxGraphModel>
    </diagram>
</mxfile>